<svg id="SvgjsSvg1001" width="288" height="288" xmlns="http://www.w3.org/2000/svg" version="1.1" xmlns:xlink="http://www.w3.org/1999/xlink" xmlns:svgjs="http://svgjs.com/svgjs"><defs id="SvgjsDefs1002"></defs><g id="SvgjsG1008"><svg xmlns="http://www.w3.org/2000/svg" viewBox="0 0 24 24" width="288" height="288"><path fill="#2f89fc" d="M17 9H7a1 1 0 0 1 0-2h10a1 1 0 0 1 0 2zm0 4H7a1 1 0 0 1 0-2h10a1 1 0 0 1 0 2z" class="color6563ff svgShape"></path><path fill="#f5f5f5" d="M19 2H5a3.003 3.003 0 0 0-3 3v10a3.003 3.003 0 0 0 3 3h11.586l3.707 3.707A1 1 0 0 0 22 21V5a3.003 3.003 0 0 0-3-3Zm-2 11H7a1 1 0 0 1 0-2h10a1 1 0 0 1 0 2Zm0-4H7a1 1 0 0 1 0-2h10a1 1 0 0 1 0 2Z" class="colorb2b1ff svgShape"></path></svg></g></svg>